:SAMPLES-PER-SECOND 30
:FULLY-SPECIFIED
:DEGREES
16
root  69.3877 40.5487 -27.5796 171.55 -87.2549 -168.726
RightUpLeg  -2.05696 -7.24438 -3.80507
RightLeg  1.7725 -6.14184 4.08567
RightFoot  -1.65507 0.0603781 -0.789879
RightToes  -1.74624e-010 0 -3.6325e-017
Spine  -0.629231 0.29014 0.0993225
Spine1  3.05805 0.364976 -0.322548
HEad  -5.37397 1.71251 1.37113
LeftShoulder1  1.16275 -1.21665 -17.8653
LeftArm  -16.3668 12.7067 -0.479655
LeftForeArm  9.70022 -2.77919 -1.65376
LeftHand  -0.244104 0.0205437 5.32207
RightShoulder  0.963042 1.46118 12.3476
RightArm  -21.1212 0.444177 4.35095
RightForeArm  3.27456 1.21349 2.74383
RightHand  -1.90974 5.76252 -19.9877
LeftUpLeg  -1.84889 4.81276 2.8342
LeftLeg  1.88711 7.64012 -3.87578
LeftFoot  -2.58591 -0.114827 1.61496
LeftToes  9.06232e-013 -1.14826e-010 3.0111e-013
17
root  69.354 40.5487 -27.5692 171.888 -87.2411 -169.155
RightUpLeg  -1.90371 -7.27578 -3.85653
RightLeg  1.77299 -6.07696 4.07819
RightFoot  -1.71383 0.0608528 -0.807848
RightToes  -1.74624e-010 0 -3.6325e-017
Spine  -0.548971 0.30258 0.204357
Spine1  3.04356 0.397384 -0.429552
HEad  -5.04188 1.8448 1.38313
LeftShoulder1  1.18557 -1.32987 -17.7579
LeftArm  -16.3546 12.7765 -0.513558
LeftForeArm  9.71392 -2.75671 -1.64565
LeftHand  -0.244104 0.0205437 5.32207
RightShoulder  0.929243 1.27299 12.4099
RightArm  -21.0451 0.557948 4.38066
RightForeArm  2.87187 1.49833 2.82676
RightHand  -1.80538 5.05804 -20.1546
LeftUpLeg  -1.66529 4.79608 2.8026
LeftLeg  1.83131 7.66093 -3.86834
LeftFoot  -2.62329 -0.11214 1.59383
LeftToes  9.06232e-013 -1.14826e-010 3.0111e-013
18
root  69.3361 40.5484 -27.5683 172.248 -87.198 -169.45
RightUpLeg  -1.95169 -7.23183 -3.84133
RightLeg  1.76821 -6.08886 4.03818
RightFoot  -1.77102 0.0551259 -0.73631
RightToes  -1.74624e-010 0 -3.6325e-017
Spine  -0.800414 0.317689 0.44665
Spine1  3.39536 0.482634 -0.786679
HEad  -5.01933 2.02411 1.4805
LeftShoulder1  1.1814 -1.34864 -17.5646
LeftArm  -16.5313 12.669 -0.697482
LeftForeArm  9.72548 -2.75455 -1.60071
LeftHand  -0.244104 0.0205437 5.32207
RightShoulder  0.913796 1.14522 12.6312
RightArm  -21.0204 0.683516 4.35769
RightForeArm  1.93178 1.70149 2.92467
RightHand  -1.7201 4.41421 -20.4362
LeftUpLeg  -1.70624 4.80286 2.79839
LeftLeg  1.84627 7.69731 -3.87859
LeftFoot  -2.68694 -0.107087 1.54783
LeftToes  9.06232e-013 -1.14826e-010 3.0111e-013
19
root  69.3274 40.5464 -27.5696 172.881 -87.1185 -170.01
RightUpLeg  -2.06723 -7.19818 -3.82905
RightLeg  1.84392 -6.04038 3.99586
RightFoot  -1.79181 0.0545188 -0.752652
RightToes  -1.74624e-010 0 -3.6325e-017
Spine  -0.844166 0.356354 0.627343
Spine1  3.53029 0.572905 -1.03991
HEad  -5.02641 2.0004 1.53849
LeftShoulder1  1.19565 -1.40599 -17.573
LeftArm  -16.602 12.5898 -0.728615
LeftForeArm  9.80548 -2.77973 -1.58711
LeftHand  -0.244104 0.0205437 5.32207
RightShoulder  0.927161 1.15807 12.8879
RightArm  -21.1456 0.617388 4.21251
RightForeArm  1.63582 1.76004 2.91472
RightHand  -1.76392 4.6149 -20.5424
LeftUpLeg  -1.74116 4.81082 2.79051
LeftLeg  1.80178 7.76888 -3.91167
LeftFoot  -2.70518 -0.106244 1.58103
LeftToes  9.06232e-013 -1.14826e-010 3.0111e-013
20
root  69.3163 40.5411 -27.567 173.35 -87.0502 -170.538
RightUpLeg  -2.08 -7.21512 -3.85149
RightLeg  2.03463 -5.92004 3.96954
RightFoot  -1.89982 0.0647707 -0.945119
RightToes  -1.74624e-010 0 -3.6325e-017
Spine  -0.329799 0.414255 0.634476
Spine1  3.06885 0.624321 -1.00833
HEad  -4.89916 1.76101 1.38958
LeftShoulder1  1.23331 -1.54169 -17.6784
LeftArm  -16.7295 12.7252 -0.772496
LeftForeArm  9.8647 -2.82593 -1.51881
LeftHand  -0.244104 0.0205437 5.32207
RightShoulder  0.943613 1.17706 13.1873
RightArm  -21.2335 0.306971 3.98551
RightForeArm  2.16486 2.08538 2.8951
RightHand  -1.8619 5.33945 -20.2396
LeftUpLeg  -1.64633 4.83986 2.79482
LeftLeg  1.80364 7.79365 -3.94628
LeftFoot  -2.76058 -0.104443 1.61727
LeftToes  9.06232e-013 -1.14826e-010 3.0111e-013
21
root  69.3005 40.525 -27.5619 173.03 -87.0169 -170.292
RightUpLeg  -2.14933 -7.19422 -3.84692
RightLeg  2.47009 -5.89554 3.89172
RightFoot  -2.42086 0.0539591 -0.900051
RightToes  -1.74624e-010 0 -3.6325e-017
Spine  0.232642 0.452942 0.63376
Spine1  2.59299 0.633454 -0.880118
HEad  -4.72934 1.68106 1.09615
LeftShoulder1  1.24322 -1.57782 -17.7026
LeftArm  -17.5236 13.0215 -1.37041
LeftForeArm  10.2018 -3.22268 -1.23224
LeftHand  -0.244104 0.0205437 5.32207
RightShoulder  0.950174 1.13833 13.5277
RightArm  -21.3135 -0.114353 3.95179
RightForeArm  2.01198 2.90671 2.98514
RightHand  -1.90169 5.64953 -20.1017
LeftUpLeg  -1.69384 4.90589 2.85598
LeftLeg  2.21641 7.72284 -3.91651
LeftFoot  -3.21518 -0.0722126 1.286
LeftToes  9.06232e-013 -1.14826e-010 3.0111e-013
22
root  69.2843 40.486 -27.5535 172.026 -86.9665 -169.315
RightUpLeg  -2.50493 -7.06668 -3.77754
RightLeg  3.45874 -6.01651 3.65281
RightFoot  -3.56695 -0.0103611 -0.189396
RightToes  -1.74624e-010 0 -3.6325e-017
Spine  0.401153 0.452905 0.866905
Spine1  2.76716 0.630791 -0.894846
HEad  -4.92355 1.72298 0.817898
LeftShoulder1  1.22691 -1.47211 -17.9058
LeftArm  -19.0887 13.4315 -2.66688
LeftForeArm  11.6902 -4.62509 -0.807666
LeftHand  -0.244104 0.0205437 5.32207
RightShoulder  0.972304 1.17313 13.8814
RightArm  -21.6127 -0.750795 4.44095
RightForeArm  -0.433248 4.365 3.23801
RightHand  -1.94535 5.39219 -21.0147
LeftUpLeg  -2.03083 4.92768 2.94079
LeftLeg  3.19921 7.68244 -3.72191
LeftFoot  -4.31844 0.00271945 0.365997
LeftToes  9.06232e-013 -1.14826e-010 3.0111e-013
23
root  69.2658 40.4268 -27.5418 170.94 -86.8333 -168.428
RightUpLeg  -2.96173 -6.94405 -3.64387
RightLeg  5.04101 -6.05224 3.19337
RightFoot  -5.10041 -0.0796614 0.825876
RightToes  -1.74624e-010 0 -3.6325e-017
Spine  0.70029 0.443372 1.33645
Spine1  3.25137 0.656451 -1.07303
HEad  -5.47633 1.77111 0.578023
LeftShoulder1  1.25553 -1.4498 -18.639
LeftArm  -20.7373 14.1599 -4.35916
LeftForeArm  14.9304 -7.53695 -0.597756
LeftHand  -0.244104 0.0205437 5.32207
RightShoulder  1.05331 1.43379 14.4761
RightArm  -21.8879 -2.13676 5.46555
RightForeArm  -4.31552 7.16533 3.79057
RightHand  -2.13205 5.5358 -22.6529
LeftUpLeg  -2.297 4.86732 2.98331
LeftLeg  4.47436 7.79345 -3.33291
LeftFoot  -5.801 0.0738493 -0.806056
LeftToes  9.06232e-013 -1.14826e-010 3.0111e-013
24
root  69.2294 40.3699 -27.5399 170.467 -86.576 -168.431
RightUpLeg  -3.19967 -7.05246 -3.40754
RightLeg  6.74647 -5.69209 2.5428
RightFoot  -6.52825 -0.0989832 1.28152
RightToes  -1.74624e-010 0 -3.6325e-017
Spine  1.61136 0.465692 1.83293
Spine1  3.42726 0.741738 -1.32659
HEad  -6.0214 1.86275 0.324467
LeftShoulder1  1.3568 -1.62617 -19.826
LeftArm  -22.0063 15.4131 -6.38631
LeftForeArm  19.4659 -11.8935 -0.937532
LeftHand  -0.244104 0.0205437 5.32207
RightShoulder  1.22607 1.94648 15.7447
RightArm  -21.0611 -4.6413 6.78869
RightForeArm  -6.83 12.0926 4.59045
RightHand  -2.42897 6.69358 -23.352
LeftUpLeg  -2.16116 4.93756 3.00719
LeftLeg  5.64858 7.94085 -2.89875
LeftFoot  -7.17683 0.105766 -1.71051
LeftToes  9.06232e-013 -1.14826e-010 3.0111e-013
25
root  69.1468 40.3338 -27.5646 171.366 -86.164 -169.793
RightUpLeg  -3.25584 -7.13755 -3.11103
RightLeg  8.05677 -5.17103 1.8889
RightFoot  -7.60599 -0.081577 0.909515
RightToes  -1.74624e-010 0 -3.6325e-017
Spine  2.49553 0.535989 2.23363
Spine1  3.57237 0.890155 -1.61233
HEad  -6.31946 2.13837 -0.0473188
LeftShoulder1  1.50532 -1.88787 -21.4063
LeftArm  -23.168 16.9651 -8.92463
LeftForeArm  24.0528 -16.9479 -1.9527
LeftHand  -0.244104 0.0205437 5.32207
RightShoulder  1.48666 2.60206 17.7671
RightArm  -18.255 -7.87543 8.44842
RightForeArm  -7.1376 18.7385 5.06951
RightHand  -2.57813 7.84614 -22.6445
LeftUpLeg  -1.73588 5.23287 3.08518
LeftLeg  6.42807 8.0534 -2.66816
LeftFoot  -8.26405 0.112 -2.31802
LeftToes  9.06232e-013 -1.14826e-010 3.0111e-013
26
root  68.9957 40.3144 -27.619 173.256 -85.6785 -171.903
RightUpLeg  -3.23986 -7.06389 -2.88959
RightLeg  8.89072 -4.72325 1.43154
RightFoot  -8.49854 -0.0643828 0.273488
RightToes  -1.74624e-010 0 -3.6325e-017
Spine  2.67 0.611129 2.62972
Spine1  4.20478 1.04329 -1.89564
HEad  -6.43488 2.51257 -0.684003
LeftShoulder1  1.75645 -2.30302 -23.8593
LeftArm  -23.7256 18.194 -11.7326
LeftForeArm  26.6678 -21.5186 -3.14064
LeftHand  -0.244104 0.0205437 5.32207
RightShoulder  1.79825 3.26209 20.1797
RightArm  -15.9234 -11.1409 10.6763
RightForeArm  -5.69686 25.2623 5.63615
RightHand  -2.56757 7.86415 -22.5356
LeftUpLeg  -1.20341 5.49161 3.22295
LeftLeg  6.71393 8.19866 -2.68387
LeftFoot  -9.15658 0.112069 -3.00291
LeftToes  9.06232e-013 -1.14826e-010 3.0111e-013
27
root  68.7843 40.2984 -27.7008 174.374 -85.3763 -173.132
RightUpLeg  -3.00672 -7.00455 -2.76559
RightLeg  9.39459 -4.48514 1.20868
RightFoot  -9.46915 -0.0631044 -0.0516341
RightToes  -1.74624e-010 0 -3.6325e-017
Spine  2.56352 0.593017 3.13746
Spine1  4.94651 1.09462 -2.14919
HEad  -6.44124 2.57731 -1.49623
LeftShoulder1  2.27763 -3.22032 -27.6107
LeftArm  -23.6865 18.6744 -14.1378
LeftForeArm  27.0248 -24.6276 -3.85583
LeftHand  -0.244104 0.0205437 5.32207
RightShoulder  2.16424 3.93679 22.8482
RightArm  -14.2732 -14.1831 13.4938
RightForeArm  -5.41808 30.2604 6.89166
RightHand  -2.61225 7.06162 -24.3207
LeftUpLeg  -0.626851 5.59415 3.38544
LeftLeg  6.76036 8.20729 -2.68156
LeftFoot  -9.89331 0.108239 -3.8677
LeftToes  9.06232e-013 -1.14826e-010 3.0111e-013
28
root  68.5428 40.2773 -27.8188 174.073 -85.4222 -172.848
RightUpLeg  -2.64947 -7.0412 -2.60039
RightLeg  9.71724 -4.61584 1.08202
RightFoot  -10.5763 -0.0714987 0.0150148
RightToes  -1.74624e-010 0 -3.6325e-017
Spine  2.6426 0.456627 3.66915
Spine1  5.29728 1.01289 -2.37331
HEad  -6.42312 2.12553 -2.16153
LeftShoulder1  3.15816 -4.72644 -32.2204
LeftArm  -23.7391 18.4187 -16.0653
LeftForeArm  26.5402 -26.0934 -4.18355
LeftHand  -0.244104 0.0205437 5.32207
RightShoulder  2.65296 4.76132 26.0017
RightArm  -11.4536 -17.165 16.6614
RightForeArm  -7.43561 33.6775 7.90806
RightHand  -2.54734 6.09376 -25.6392
LeftUpLeg  -0.277115 5.65887 3.57467
LeftLeg  6.97692 7.92442 -2.50385
LeftFoot  -10.4821 0.0971667 -4.55868
LeftToes  9.06232e-013 -1.14826e-010 3.0111e-013
29
root  68.2811 40.2426 -27.9813 174.272 -85.6354 -172.731
RightUpLeg  -2.659 -7.18864 -2.37085
RightLeg  10.1569 -4.89204 0.917509
RightFoot  -11.7319 -0.0785377 0.245836
RightToes  -1.74624e-010 0 -3.6325e-017
Spine  2.40453 0.325737 3.9587
Spine1  5.78399 0.893974 -2.44238
HEad  -6.47665 1.51116 -2.5574
LeftShoulder1  4.25575 -6.42411 -36.7059
LeftArm  -22.845 17.5125 -18.3558
LeftForeArm  25.2335 -26.661 -4.37617
LeftHand  -0.244104 0.0205437 5.32207
RightShoulder  3.265 5.70875 29.4604
RightArm  -9.09593 -20.1287 20.2607
RightForeArm  -7.60201 35.9463 8.57072
RightHand  -2.03152 4.51814 -23.6482
LeftUpLeg  -0.375146 5.82168 3.73814
LeftLeg  7.33839 7.45599 -2.32652
LeftFoot  -11.0239 0.0795844 -4.83988
LeftToes  9.06232e-013 -1.14826e-010 3.0111e-013
30
root  67.9739 40.1912 -28.1807 177.137 -85.7674 -175.094
RightUpLeg  -2.97701 -7.50573 -2.2568
RightLeg  10.9255 -4.91365 0.721013
RightFoot  -12.949 -0.0831365 0.340277
RightToes  -1.74624e-010 0 -3.6325e-017
Spine  1.65944 0.279589 3.78482
Spine1  6.98911 0.763565 -2.062
HEad  -6.95028 1.25744 -3.08805
LeftShoulder1  5.3235 -7.89011 -40.4201
LeftArm  -19.3614 16.1873 -21.5888
LeftForeArm  23.0121 -27.7997 -4.74641
LeftHand  -0.244104 0.0205437 5.32207
RightShoulder  3.85753 6.53162 32.5035
RightArm  -9.05758 -23.0416 24.8714
RightForeArm  -5.7732 38.0082 9.10028
RightHand  -1.33058 2.40967 -19.8868
LeftUpLeg  -0.459049 5.98713 3.79568
LeftLeg  7.43197 7.04606 -2.30779
LeftFoot  -11.5424 0.060428 -4.97493
LeftToes  9.06232e-013 -1.14826e-010 3.0111e-013
